<svg xmlns="http://www.w3.org/2000/svg" viewBox="0 0 794 794" role="img" aria-label="Export builder icon">
  <rect width="794" height="794" rx="125" ry="125" fill="#F9EBDE"/>

  <g fill="#815854" transform="translate(397 397) scale(0.85) translate(-397 -397)">
    <path d="M188 70H461L657 266V670C657 688 647 704 631 714C623 721 613 726 603 726H395V662H593V299L428 298L427 134H196V463H132V128C132 108 143 92 160 81C168 75 178 70 188 70Z"/>
    <path d="M204 531H268V641H328L236 739L144 641H204V531Z"/>
  </g>
</svg>
