<svg xmlns="http://www.w3.org/2000/svg" viewBox="0 0 794 794" role="img" aria-label="Data builder icon">
  <defs>
    <linearGradient id="bg-gradient" x1="0" y1="0" x2="794" y2="0" gradientUnits="userSpaceOnUse">
      <stop offset="0" stop-color="#8455F6"/>
      <stop offset="0.5" stop-color="#7C99EC"/>
      <stop offset="1" stop-color="#93E3E8"/>
    </linearGradient>
  </defs>

  <rect width="794" height="794" rx="96" ry="96" fill="url(#bg-gradient)"/>

  <g fill="#FFFFFF">
    <path d="M188 70H461L657 266V670C657 688 647 704 631 714C623 721 613 726 603 726H395V662H593V299L428 298L427 134H196V463H132V128C132 108 143 92 160 81C168 75 178 70 188 70Z"/>
    <path d="M204 531H268V641H328L236 739L144 641H204V531Z"/>
  </g>
</svg>
